<svg xmlns="http://www.w3.org/2000/svg" xmlns:xlink="http://www.w3.org/1999/xlink" width="217.541" height="161.44" viewBox="0 0 217.541 161.44"><defs><style>.a{opacity:0.8;}.b,.c{fill:url(#a);}.c{fill-rule:evenodd;}</style><radialGradient id="a" cx="0.5" cy="0.5" r="0.5" gradientUnits="objectBoundingBox"><stop offset="0" stop-color="#ffd788"/><stop offset="1" stop-color="#ffc164"/></radialGradient></defs><g class="a" transform="translate(-131.005 -163.515)"><path class="b" d="M318.384,287.547a10.961,10.961,0,0,1,.323,2.51v.371a9.248,9.248,0,0,1,6.8-2.881,7.6,7.6,0,0,1,4.746,1.378,4.6,4.6,0,0,1,1.771,3.872v9.759a10.508,10.508,0,0,0,.181,2.29,2.4,2.4,0,0,0,.716,1.212,4.633,4.633,0,0,0,2.361.944v.473H325.129V307a6.05,6.05,0,0,0,1.976-.519,2.4,2.4,0,0,0,.968-1.141,5.2,5.2,0,0,0,.354-1.6c.071-.716.1-1.747.1-3.086V295.78a27.551,27.551,0,0,0-.173-3.692,4.5,4.5,0,0,0-.653-1.888,3.447,3.447,0,0,0-1.519-1.26,5.223,5.223,0,0,0-2.188-.448,5.71,5.71,0,0,0-2.4.5,4.4,4.4,0,0,0-1.763,1.385,4.973,4.973,0,0,0-.905,2.086,23.173,23.173,0,0,0-.22,3.865v4.518l.023,1.708a10.633,10.633,0,0,0,.18,2.29,2.409,2.409,0,0,0,.717,1.212,4.733,4.733,0,0,0,2.385.944v.473h-10.2V307a5.865,5.865,0,0,0,1.975-.519,2.372,2.372,0,0,0,.968-1.133,5.1,5.1,0,0,0,.354-1.59c.07-.708.1-1.739.1-3.085v-5.659a31.22,31.22,0,0,0-.118-3.313,3.53,3.53,0,0,0-.5-1.551,2.445,2.445,0,0,0-.952-.929,4.233,4.233,0,0,0-1.591-.354V288.4Zm-26,9.949a12.257,12.257,0,0,0,1.794,6.784c1.345,2.07,3,3.1,4.942,3.1a4.691,4.691,0,0,0,2.417-.693,6.362,6.362,0,0,0,2.023-1.928A10.816,10.816,0,0,0,305,301.525a13.608,13.608,0,0,0,.551-3.755,13.161,13.161,0,0,0-.582-3.809,11.373,11.373,0,0,0-1.582-3.3,5.553,5.553,0,0,0-4.62-2.6,5.414,5.414,0,0,0-4.486,2.739A11.425,11.425,0,0,0,292.38,297.5Zm-4.2.26a9.444,9.444,0,0,1,2.762-6.659,10.854,10.854,0,0,1,16.056,0,9.494,9.494,0,0,1,.133,13.254,11.158,11.158,0,0,1-16.323,0,10.047,10.047,0,0,1-1.952-3.086A9.5,9.5,0,0,1,288.178,297.755Zm-7.186-18.519a2.036,2.036,0,0,1-1.488-.574,1.96,1.96,0,0,1-.59-1.456,1.936,1.936,0,0,1,.6-1.44,2.149,2.149,0,0,1,2.959,0,1.936,1.936,0,0,1,.6,1.44,1.957,1.957,0,0,1-.591,1.456A2.033,2.033,0,0,1,280.992,279.236Zm-4.817,9.161,6.658-.85v13.278l.023,1.747a10.477,10.477,0,0,0,.181,2.283,2.42,2.42,0,0,0,.717,1.2,4.7,4.7,0,0,0,2.377.944v.473H275.923V307a5.809,5.809,0,0,0,1.983-.519,2.33,2.33,0,0,0,.968-1.133,4.827,4.827,0,0,0,.362-1.59c.071-.708.1-1.739.1-3.085v-5.659a31.231,31.231,0,0,0-.118-3.313,3.53,3.53,0,0,0-.5-1.551,2.439,2.439,0,0,0-.952-.929,4.228,4.228,0,0,0-1.59-.354Zm-6.532-.519H275.5v.849h-5.855V302.17a5.624,5.624,0,0,0,.826,3.463,2.939,2.939,0,0,0,1.149.9,3.7,3.7,0,0,0,1.536.323,3.205,3.205,0,0,0,1.715-.425,5.937,5.937,0,0,0,1.511-1.558l.346.283a4.76,4.76,0,0,1-2.124,2.062,7.732,7.732,0,0,1-3.416.676,6.049,6.049,0,0,1-3.959-1.062,2.6,2.6,0,0,1-.874-1.33,12.742,12.742,0,0,1-.2-2.778v-14h-2.463v-.353a6.4,6.4,0,0,0,2.763-1.858,9.109,9.109,0,0,0,1.228-1.693,11.927,11.927,0,0,0,.881-2.18l.228-.763h.858Zm-8.359,15.237.472.157a6.442,6.442,0,0,1-2.463,3.542,8.278,8.278,0,0,1-4.564,1.086,9.186,9.186,0,0,1-9.877-9.633,11.684,11.684,0,0,1,.716-4.014,10.269,10.269,0,0,1,1.952-3.385,9.25,9.25,0,0,1,3.447-2.471,11.451,11.451,0,0,1,4.454-.85,8.22,8.22,0,0,1,5.234,1.5,2.6,2.6,0,0,1,1.149,2.023,1.684,1.684,0,0,1-.48,1.227,1.585,1.585,0,0,1-1.18.5c-1,0-1.731-.724-2.212-2.18a8.914,8.914,0,0,0-.519-1.369,1.813,1.813,0,0,0-.559-.646,2.823,2.823,0,0,0-1.747-.527,4.433,4.433,0,0,0-2.5.764A6.261,6.261,0,0,0,250.9,290.5a10.5,10.5,0,0,0-1.228,2.527,13.971,13.971,0,0,0-.8,4.564,11.391,11.391,0,0,0,.732,4.014,9.5,9.5,0,0,0,2,3.274,6.2,6.2,0,0,0,4.636,2.078,4.973,4.973,0,0,0,3.652-1.425A7.293,7.293,0,0,0,261.284,303.115Zm-23.548-9.1a8.718,8.718,0,0,0-.849-3.526,4.785,4.785,0,0,0-1.653-1.772,4.1,4.1,0,0,0-2.2-.653,4.479,4.479,0,0,0-3.455,1.693,7.479,7.479,0,0,0-1.755,4.258Zm-10.058.9c-.063.756-.095,1.3-.095,1.637a13.282,13.282,0,0,0,.59,3.928,9.463,9.463,0,0,0,1.6,3.188,7.476,7.476,0,0,0,5.776,2.77,6.7,6.7,0,0,0,2.353-.418,5.034,5.034,0,0,0,1.858-1.157,6.466,6.466,0,0,0,1.424-2.582l.473.166a6.435,6.435,0,0,1-2.573,4.077,8.977,8.977,0,0,1-5.25,1.377,11.968,11.968,0,0,1-4.864-.9,8.648,8.648,0,0,1-3.439-2.77,10.34,10.34,0,0,1-1.96-6.407,9.819,9.819,0,0,1,3.715-8.138,9.64,9.64,0,0,1,6.155-2.141,8.824,8.824,0,0,1,3.408.654,7.158,7.158,0,0,1,2.653,1.9,7.037,7.037,0,0,1,1.683,4.817ZM211.568,275.93l6.658-.85V300.8l.023,1.756a10.509,10.509,0,0,0,.181,2.29,2.414,2.414,0,0,0,.716,1.212,4.737,4.737,0,0,0,2.385.944v.473h-10.2V307a5.865,5.865,0,0,0,1.976-.519,2.377,2.377,0,0,0,.968-1.133,5.217,5.217,0,0,0,.354-1.605c.07-.709.1-1.739.1-3.093V282.589a31.361,31.361,0,0,0-.118-3.3,3.539,3.539,0,0,0-.5-1.566,2.317,2.317,0,0,0-.952-.922,4.246,4.246,0,0,0-1.59-.346Zm-11.435,0,6.658-.85V300.8l.023,1.756a10.51,10.51,0,0,0,.181,2.29,2.408,2.408,0,0,0,.716,1.212A4.737,4.737,0,0,0,210.1,307v.473H199.9V307a5.871,5.871,0,0,0,1.976-.519,2.371,2.371,0,0,0,.968-1.133,5.163,5.163,0,0,0,.354-1.605c.071-.709.1-1.739.1-3.093V282.589a31.36,31.36,0,0,0-.118-3.3,3.539,3.539,0,0,0-.5-1.566,2.317,2.317,0,0,0-.952-.922,4.246,4.246,0,0,0-1.59-.346ZM180.464,297.5a12.265,12.265,0,0,0,1.794,6.784c1.346,2.07,3,3.1,4.942,3.1a4.688,4.688,0,0,0,2.417-.693,6.352,6.352,0,0,0,2.023-1.928,10.816,10.816,0,0,0,1.448-3.234,13.608,13.608,0,0,0,.551-3.755,13.161,13.161,0,0,0-.582-3.809,11.349,11.349,0,0,0-1.582-3.3,5.553,5.553,0,0,0-4.62-2.6,5.415,5.415,0,0,0-4.486,2.739A11.425,11.425,0,0,0,180.464,297.5Zm-4.2.26a9.441,9.441,0,0,1,2.763-6.659,10.853,10.853,0,0,1,16.055,0,9.5,9.5,0,0,1,.134,13.254,11.159,11.159,0,0,1-16.324,0,10.044,10.044,0,0,1-1.951-3.086A9.487,9.487,0,0,1,176.261,297.755Zm-3.518-21.777.283,10.152h-.519c-.166-.448-.3-.787-.394-1.015-.535-1.48-.976-2.573-1.314-3.3a11.645,11.645,0,0,0-2.613-3.557,8.7,8.7,0,0,0-2.676-1.779,8.375,8.375,0,0,0-3.124-.551,8.794,8.794,0,0,0-4.525,1.125,11.368,11.368,0,0,0-3.141,2.849,16.506,16.506,0,0,0-2.385,4.226,20.786,20.786,0,0,0-1.314,7.61,21.978,21.978,0,0,0,.9,6.517,13.123,13.123,0,0,0,2.637,4.864,10.668,10.668,0,0,0,8.453,3.645,11.79,11.79,0,0,0,4.729-.913A7.493,7.493,0,0,0,171,303.288a13.221,13.221,0,0,0,1.936-5.163l.519.095a12.316,12.316,0,0,1-1.983,5.793,9.265,9.265,0,0,1-4.069,3.132,15.479,15.479,0,0,1-6.013,1.087,19.654,19.654,0,0,1-6.092-.944,13.414,13.414,0,0,1-7.241-5.5,16.868,16.868,0,0,1-2.605-9.483,19.547,19.547,0,0,1,1.519-7.775,14.321,14.321,0,0,1,4.25-5.73,16.313,16.313,0,0,1,5.014-2.644,17.379,17.379,0,0,1,11.75.094l1.889.622a2.773,2.773,0,0,0,.968.213,1.151,1.151,0,0,0,.944-.481,5.02,5.02,0,0,0,.393-.763Z" transform="translate(-1.42 -10.966)"/><rect class="b" width="217.541" height="4.691" transform="translate(131.005 302.643)"/><path class="b" d="M308.47,337.59H311.6l-.958-2.547c-.289-.775-.507-1.414-.659-1.919a13.021,13.021,0,0,1-.507,1.769Zm-2.644,3.774,3.526-9.19h1.337l3.741,9.19h-1.384l-1.063-2.784h-3.87l-1,2.784Zm-3.545,0v-8.112h-3.03v-1.078h7.279v1.078H303.5v8.112Zm-8.309-3.774H297.1l-.958-2.547c-.289-.775-.508-1.414-.659-1.919a13.149,13.149,0,0,1-.507,1.769Zm-2.644,3.774,3.525-9.19h1.337l3.742,9.19h-1.384l-1.063-2.784h-3.87l-1,2.784Zm-4.012,0v-3.893l-3.543-5.3h1.463l1.817,2.781c.337.516.652,1.032.939,1.547q.421-.722,1.016-1.619l1.78-2.709h1.418l-3.671,5.3v3.893Zm-11.809,0v-9.19h1.219v3.787h4.749v-3.787h1.22v9.19h-1.22v-4.325h-4.749v4.325Zm-7.445-1.078h2.289a5.209,5.209,0,0,0,.83-.045,1.966,1.966,0,0,0,.7-.251,1.335,1.335,0,0,0,.464-.513,1.6,1.6,0,0,0,.182-.776,1.523,1.523,0,0,0-.266-.9,1.375,1.375,0,0,0-.731-.535,4.5,4.5,0,0,0-1.344-.154h-2.126Zm0-4.249h1.987a4.414,4.414,0,0,0,1.16-.107,1.283,1.283,0,0,0,.7-.46,1.321,1.321,0,0,0,.236-.8,1.463,1.463,0,0,0-.221-.806,1.105,1.105,0,0,0-.627-.48,5.233,5.233,0,0,0-1.4-.128h-1.838Zm-1.219,5.326v-9.19h3.448a4.264,4.264,0,0,1,1.69.279,2.161,2.161,0,0,1,.995.859,2.25,2.25,0,0,1,.362,1.214,2.093,2.093,0,0,1-.318,1.108,2.279,2.279,0,0,1-.963.84,2.387,2.387,0,0,1,1.281.834,2.219,2.219,0,0,1,.449,1.39,2.685,2.685,0,0,1-.273,1.2,2.338,2.338,0,0,1-.674.856,2.873,2.873,0,0,1-1.005.454,6.17,6.17,0,0,1-1.485.153Zm-6.874-3.774H263.1l-.958-2.547c-.289-.775-.507-1.414-.659-1.919a13.016,13.016,0,0,1-.507,1.769Zm-2.645,3.774,3.526-9.19h1.337l3.741,9.19h-1.383l-1.064-2.784h-3.87l-1,2.784Zm-7.951-2.952,1.142-.1a2.553,2.553,0,0,0,.378,1.139,2.1,2.1,0,0,0,.924.719,3.494,3.494,0,0,0,1.41.274,3.354,3.354,0,0,0,1.228-.207,1.7,1.7,0,0,0,.791-.572,1.322,1.322,0,0,0,.261-.787,1.2,1.2,0,0,0-.251-.753,1.88,1.88,0,0,0-.828-.542q-.369-.141-1.637-.446a8.383,8.383,0,0,1-1.773-.573,2.482,2.482,0,0,1-.978-.858,2.091,2.091,0,0,1-.323-1.145,2.336,2.336,0,0,1,.4-1.3,2.441,2.441,0,0,1,1.153-.92,4.363,4.363,0,0,1,1.685-.314,4.581,4.581,0,0,1,1.8.329,2.591,2.591,0,0,1,1.2.968,2.788,2.788,0,0,1,.452,1.449l-1.169.089a1.869,1.869,0,0,0-.636-1.313,2.474,2.474,0,0,0-1.6-.445,2.571,2.571,0,0,0-1.609.4,1.214,1.214,0,0,0-.5.975,1.048,1.048,0,0,0,.358.815,4.836,4.836,0,0,0,1.833.655,12.263,12.263,0,0,1,2.034.586,2.779,2.779,0,0,1,1.183.935,2.272,2.272,0,0,1,.381,1.3,2.484,2.484,0,0,1-.419,1.38,2.762,2.762,0,0,1-1.2,1.008,4.216,4.216,0,0,1-1.769.359,5.28,5.28,0,0,1-2.087-.363,2.9,2.9,0,0,1-1.32-1.093A3.093,3.093,0,0,1,249.375,338.411Zm-10.945,2.952v-9.19h6.2v1.078h-4.98v2.862h4.313v1.078h-4.313v4.171Zm-9.162-4.452a3.668,3.668,0,0,0,.892,2.612,3.12,3.12,0,0,0,4.5-.008,3.893,3.893,0,0,0,.885-2.734,4.7,4.7,0,0,0-.378-1.956,2.916,2.916,0,0,0-1.108-1.294,3.017,3.017,0,0,0-1.639-.46,3.108,3.108,0,0,0-2.22.885A3.947,3.947,0,0,0,229.268,336.912Zm-1.258-.022a4.987,4.987,0,0,1,1.23-3.579,4.177,4.177,0,0,1,3.172-1.291,4.419,4.419,0,0,1,2.3.607,3.971,3.971,0,0,1,1.557,1.694,5.492,5.492,0,0,1,.537,2.463,5.394,5.394,0,0,1-.565,2.5,3.841,3.841,0,0,1-1.6,1.669,4.581,4.581,0,0,1-2.234.566,4.354,4.354,0,0,1-2.321-.627,4.023,4.023,0,0,1-1.549-1.71A5.167,5.167,0,0,1,228.01,336.89Zm-11.73,4.473v-9.19h6.636v1.078H217.5v2.824h5.069v1.078H217.5v3.133h5.635v1.078Zm-8.985-2.952,1.142-.1a2.553,2.553,0,0,0,.378,1.139,2.1,2.1,0,0,0,.924.719,3.494,3.494,0,0,0,1.41.274,3.354,3.354,0,0,0,1.228-.207,1.709,1.709,0,0,0,.791-.572,1.322,1.322,0,0,0,.261-.787,1.2,1.2,0,0,0-.251-.753,1.88,1.88,0,0,0-.828-.542,16.95,16.95,0,0,0-1.637-.446,8.414,8.414,0,0,1-1.774-.573,2.492,2.492,0,0,1-.977-.858,2.1,2.1,0,0,1-.323-1.145,2.336,2.336,0,0,1,.4-1.3,2.441,2.441,0,0,1,1.153-.92,4.36,4.36,0,0,1,1.685-.314,4.578,4.578,0,0,1,1.8.329,2.591,2.591,0,0,1,1.2.968,2.8,2.8,0,0,1,.452,1.449l-1.169.089a1.869,1.869,0,0,0-.636-1.313,2.472,2.472,0,0,0-1.6-.445,2.571,2.571,0,0,0-1.609.4,1.214,1.214,0,0,0-.5.975,1.048,1.048,0,0,0,.358.815,4.835,4.835,0,0,0,1.833.655,12.263,12.263,0,0,1,2.034.586,2.779,2.779,0,0,1,1.183.935,2.272,2.272,0,0,1,.381,1.3,2.484,2.484,0,0,1-.419,1.38,2.762,2.762,0,0,1-1.2,1.008,4.218,4.218,0,0,1-1.77.359,5.278,5.278,0,0,1-2.086-.363,2.9,2.9,0,0,1-1.319-1.093A3.087,3.087,0,0,1,207.295,338.411Zm-2.852-6.238h1.219v5.307a6.335,6.335,0,0,1-.312,2.2,2.7,2.7,0,0,1-1.13,1.324,4,4,0,0,1-2.143.511,4.4,4.4,0,0,1-2.107-.445,2.53,2.53,0,0,1-1.17-1.288,6.158,6.158,0,0,1-.352-2.3v-5.307h1.22v5.306a5.2,5.2,0,0,0,.222,1.765,1.678,1.678,0,0,0,.762.876,2.632,2.632,0,0,0,1.32.307,2.522,2.522,0,0,0,1.9-.608,3.524,3.524,0,0,0,.566-2.34Zm-15.118,4.739a3.668,3.668,0,0,0,.892,2.612,3.12,3.12,0,0,0,4.5-.008,3.894,3.894,0,0,0,.886-2.734,4.7,4.7,0,0,0-.379-1.956,2.911,2.911,0,0,0-1.108-1.294,3.015,3.015,0,0,0-1.639-.46,3.108,3.108,0,0,0-2.22.885A3.947,3.947,0,0,0,189.325,336.912Zm-1.258-.022a4.986,4.986,0,0,1,1.23-3.579,4.178,4.178,0,0,1,3.172-1.291,4.419,4.419,0,0,1,2.3.607,3.971,3.971,0,0,1,1.557,1.694,5.491,5.491,0,0,1,.537,2.463,5.394,5.394,0,0,1-.564,2.5,3.841,3.841,0,0,1-1.6,1.669,4.581,4.581,0,0,1-2.234.566,4.354,4.354,0,0,1-2.321-.627,4.023,4.023,0,0,1-1.549-1.71A5.167,5.167,0,0,1,188.067,336.89Zm-8.846,4.473v-9.19h1.219v3.787h4.749v-3.787h1.219v9.19h-1.219v-4.325H180.44v4.325Z" transform="translate(-4.739 -16.563)"/><path class="c" d="M230.96,216.952l4.7.949c0,.461-6.781,14.614-7.958,17.105-1.379,2.914-11.123,12.268-13.973,10.736-1.158-1.643,13.845-30.583,15.673-34.237,2.711-5.419,5.153-11.423,8.365-16.837,8.875-14.963,12.88-4.989,13.862-5.417,3.176-3.4-13.011-14.885-28.372,18.725-6.045,13.227-11.981,25.068-22.266,35.438-22.281,22.463-8.05-16.027-4.352-23.356,5.69-11.276,7.994-16.792,15.9-27.346,3.408-4.552,6.576.563,10.011.234a4.334,4.334,0,0,0-3.014-6.571c-4.638-.439-4.575,1.88-9.181.508a98.516,98.516,0,0,0-18.962-3.3c-7.187-.251-11.509-1.366-19.02,1.6-2.944,1.162-12.081,7.176-12.73,9.58,2.875-.26,10.194-8.435,22.926-8.712,4.832-.1,24.564,1.264,27.586,3.508-.067.211-6.891,7-7.834,8.219-7.978,10.27-12.756,18.456-17.292,31.047-2.162,6-5.685,22.678,2.725,23.9,8.776,1.275,16.264-11.106,19.815-12.379-1.833,20.584,17.164.348,18.454,0,.009,5.119.4,9.551,7.291,8.258,5.067-.95,6.949-4.461,10.187-6.342.838.227,2.285,8.124,12.089,6.444a10.439,10.439,0,0,0,9.008-10.289c.006-4.589-3.333-10.268-4.5-14.656-2.3-8.639,7.534-8.489,7.929-3.8-6.659,0-6.809,6.9-2.976,7.667,4.785.955,7.918-4.629,5.732-8.633-4-7.322-17.385-4.978-17.09,6.2.113,4.25,9.952,22.165-2.258,21.122a6.635,6.635,0,0,1-4.954-2.885c-1.837-2.537-1.2-2.992.46-5.033,1.2-1.481,6.447-8.393,5.462-9.978-4.395-2.715-9.259,4.926-9.155,9.452.1,4.28-9.217,9.215-10.894,7.293l-1.1-.506,12.382-26.925.287.473,8.382-1.051-.161-1.286c-1.39-1.2-7.959.956-6.834-1.324.988-2,2.147-4.035,3.06-5.978,1.621-3.445,4.025-8.35,6.114-11.79,4.152-6.837,8.628-14.9,14.806-20.863,6.9-6.653,15.958-10.977,25.495-9.986a14.284,14.284,0,0,1,10.592,7.31c.7,1.208,2.206,5.958,2.806,6.128,1.993.567,3.344-3.507,2.316-5.74-8.853-19.213-37.065-7.079-47.676,3.672-9.658,9.787-15.868,19.423-22.275,31.3-1.069,1.984-1.968,3.879-3.008,5.943-1.3,2.587-6.125-.709-6.577,2.4" transform="translate(-2.814)"/><path class="c" d="M314.353,251.6c-1.4-5.905,19.9-31.262,6.335-31.262-2.124,3.21-6.845,13.2-8.366,16.836-.9,2.158-2.813,6.508-4.4,8.134-1.051,1.079-6.041,5.679-7.32,5.041l-.556-.266,14.009-29.336-.818-1.17-9.01,4.154.335.727c-1.136-1.291-.144-5.43-5.56-4.885-6.677.672-13.634,10.562-16.23,15.734-2.137,4.259-5.183,11.774-2.171,16.3,4.427,6.66,11.483-2.522,13.644-3.591.856,2.815.519,7.885,6.661,5.007,4.088-1.915,4.514-3.519,7.525-5.7.651,1.413-.563,4.256,2.84,5.835,6,2.785,14.629-3.237,18.384-7.2,6.177-6.515,10.962-17.008,6.93-26.793-1.211-2.938-7.117-12.7-4.157-2.591,1.222,4.173-.2,11.59-1.624,15.661-2.069,5.932-9.242,19.507-16.453,19.354m-12.128-25.452c-1.152,6.137-3.433,10.344-6.444,15.693-.977,1.738-11.1,15.4-9.83,5.888C287.308,237.54,304.526,213.9,302.225,226.146Z" transform="translate(-14.58 -4.776)"/></g></svg>