<svg xmlns="http://www.w3.org/2000/svg" width="22.504" height="22.312" viewBox="0 0 22.504 22.312"><defs><style>.a{fill:#fff;}</style></defs><path class="a" d="M1963.43,1045.42a2.068,2.068,0,0,1-1.558-2.32q0-8.088,0-16.176c0-.594-.017-1.188.006-1.781a2.006,2.006,0,0,1,1.555-2.034c.2.18.453.107.683.107q9,.006,18.007,0c.23,0,.478.072.683-.107a2.068,2.068,0,0,1,1.558,2.32q0,8.088,0,16.177c0,.594.017,1.188-.006,1.781a2.006,2.006,0,0,1-1.555,2.034c-.2-.18-.453-.107-.683-.107q-9-.006-18.007,0C1963.884,1045.313,1963.635,1045.241,1963.43,1045.42Zm10.858-9.08c.04-.184.065-.373.122-.551a1.891,1.891,0,0,1,2.139-1.464,1.8,1.8,0,0,1,1.579,1.813,12.179,12.179,0,0,1,.085,1.347c.01,1.567.018,3.135,0,4.7-.008.6.2.879.832.85.688-.031,1.379-.034,2.067,0,.648.033.89-.224.881-.872-.032-2.137-.02-4.274-.038-6.412a6.471,6.471,0,0,0-.411-2.154,3.421,3.421,0,0,0-2.686-2.381,4.443,4.443,0,0,0-4.58,1.358c-.09-.563.1-1.261-.7-1.3s-1.615-.028-2.423-.009a.6.6,0,0,0-.642.687q.005,5.2,0,10.4c0,.246.035.56.293.591a9.409,9.409,0,0,0,3.162-.036c.109-.024.185-.2.276-.311.24-.175.151-.433.152-.658q.01-2.494,0-4.988C1974.4,1036.744,1974.459,1036.519,1974.288,1036.34Zm-5.451.853c0-1.686-.014-3.373.007-5.059.008-.611-.265-.877-.846-.879-.689,0-1.378-.009-2.067,0-.5.008-.8.217-.8.773q.009,5.13,0,10.26c0,.5.223.746.732.74.713-.008,1.426-.02,2.138,0,.616.021.848-.255.842-.855C1968.826,1040.518,1968.837,1038.855,1968.837,1037.193Zm-1.854-11.694a2.415,2.415,0,0,0-2.407,2.392,2.407,2.407,0,1,0,4.815,0A2.416,2.416,0,0,0,1966.984,1025.5Z" transform="translate(-1961.865 -1023.108)"/></svg>