<svg xmlns="http://www.w3.org/2000/svg" width="26.856" height="25.187" viewBox="0 0 26.856 25.187"><defs><style>.a{fill:#fff;}</style></defs><g transform="translate(0 0)"><path class="a" d="M-580.541,894.308a7.109,7.109,0,0,1,6.976-7.358,7.113,7.113,0,0,1,6.974,7.358c.822,0,4.509,0,5.331,0,.666,0,.753.082.753.729q0,6.656,0,13.311A2.877,2.877,0,0,1-563.6,911.4h-19.946a2.877,2.877,0,0,1-3.084-3.059q-.01-6.655,0-13.311c0-.632.092-.724.708-.725C-585.093,894.306-581.4,894.308-580.541,894.308Zm-5.251.82v.529q0,6.321,0,12.643a2.042,2.042,0,0,0,2.254,2.284c4.739.008,15.206.009,19.945,0a2.043,2.043,0,0,0,2.25-2.288q0-6.321,0-12.643v-.524h-5.3v.541c0,.7.011,1.4-.009,2.1a.887.887,0,0,1-.188.506.389.389,0,0,1-.386.018.769.769,0,0,1-.224-.477c-.021-.886-.01-1.774-.01-2.687h-12.223c0,.821.009,1.613,0,2.4-.005.325.134.8-.406.8s-.394-.484-.4-.8c-.018-.79-.006-1.581-.006-2.4Zm18.337-.845a5.982,5.982,0,0,0-2.816-5.509,5.8,5.8,0,0,0-6.638.026,5.964,5.964,0,0,0-2.767,5.483Z" transform="translate(586.996 -886.583)"/><path class="a" d="M-574.2,911.136h-9.973a3.224,3.224,0,0,1-3.45-3.425q-.008-5.437,0-10.874V894.4c0-.834.251-1.09,1.074-1.091.644,0,3.036,0,4.464,0h.55a7.386,7.386,0,0,1,2.107-5.1,7.54,7.54,0,0,1,5.233-2.262h.005a7.635,7.635,0,0,1,5.221,2.259,7.387,7.387,0,0,1,2.111,5.1h4.968c.867,0,1.118.247,1.118,1.1v2.518q0,5.4,0,10.794a3.225,3.225,0,0,1-3.453,3.421Zm-12.669-17.074a1.5,1.5,0,0,0-.023.337v2.438q0,5.437,0,10.873a2.513,2.513,0,0,0,2.717,2.693h19.946a2.513,2.513,0,0,0,2.721-2.69q.008-5.4,0-10.792V894.4a1.587,1.587,0,0,0-.022-.34,1.78,1.78,0,0,0-.365-.023h-5.7l.005-.371a6.731,6.731,0,0,0-1.9-4.946,6.879,6.879,0,0,0-4.7-2.041h-.005a6.8,6.8,0,0,0-4.712,2.044,6.7,6.7,0,0,0-1.9,4.943l.005.372h-1.286c-1.427,0-3.818,0-4.462,0A1.471,1.471,0,0,0-586.872,894.062Zm12.535,16.26c-3.74,0-7.47,0-9.836-.007a2.4,2.4,0,0,1-2.619-2.651V894.127h6.029l0,1.069c0,.569,0,1.129.008,1.688,0,.066,0,.138-.006.212a1.549,1.549,0,0,0,0,.232.438.438,0,0,0,.049,0l.043,0a1.569,1.569,0,0,0,0-.23c0-.071-.008-.14-.006-.2.009-.561.007-1.122.005-1.694v-1.071h12.956l0,1.071c0,.679,0,1.321.012,1.973a.285.285,0,0,0,.032.106.5.5,0,0,0,.034-.155c.015-.5.012-1.018.01-1.515l0-1.48h6.029v13.533a2.4,2.4,0,0,1-2.616,2.654C-566.614,910.32-570.48,910.322-574.337,910.322ZM-586.06,894.86v12.805a1.69,1.69,0,0,0,1.888,1.918c4.8.009,15.242.009,19.944,0a1.689,1.689,0,0,0,1.885-1.922v-12.8h-4.564l0,.745c0,.5,0,1.025-.011,1.539a1.254,1.254,0,0,1-.273.73.62.62,0,0,1-.452.192.63.63,0,0,1-.473-.147,1.128,1.128,0,0,1-.333-.73c-.016-.661-.013-1.308-.012-1.992v-.336h-11.489v.337c0,.576,0,1.142-.006,1.707,0,.048,0,.1.005.152a1,1,0,0,1-.191.787.768.768,0,0,1-.581.219h-.006a.77.77,0,0,1-.582-.223,1,1,0,0,1-.19-.786c0-.053.006-.106.006-.154-.013-.565-.011-1.131-.008-1.707v-.333Zm5.415,2.462Zm-.148,0Zm13.065-3.307H-580.67l-.007-.359a6.312,6.312,0,0,1,2.935-5.8,6.159,6.159,0,0,1,7.032-.027,6.339,6.339,0,0,1,2.987,5.824Zm-12.216-.732h11.487a5.5,5.5,0,0,0-2.644-4.834,5.406,5.406,0,0,0-6.244.025A5.545,5.545,0,0,0-579.944,893.282Z" transform="translate(587.63 -885.949)"/></g></svg>