<svg xmlns="http://www.w3.org/2000/svg" width="65.297" height="12.451" viewBox="0 0 65.297 12.451"><defs><style>.a{fill:#925d1b;}</style></defs><path class="a" d="M606.661,757.058a2.087,2.087,0,0,0-1.963,1.4h-5.542l-4.8-3.058-3.585,3.058H583.36l-6.488-5.531-8.684,5.529h-6.755l-3.585-3.056-4.8,3.056H547.5a2.09,2.09,0,1,0,0,1.388h5.542l4.8,3.058,3.586-3.058h6.75l8.689,5.533,6.485-5.532h7.414l3.585,3.057,4.8-3.057H604.7a2.086,2.086,0,1,0,1.963-2.784Zm-61.118,2.791a.7.7,0,1,1,.7-.7A.7.7,0,0,1,545.543,759.849Zm12.185,1.328-3.187-2.031,3.188-2.029,2.379,2.029ZM576.72,763.2l-6.355-4.048,6.357-4.047,4.745,4.045Zm17.756-2.019-2.379-2.029,2.379-2.031,3.187,2.031Zm12.186-1.328a.7.7,0,1,1,.7-.7A.7.7,0,0,1,606.661,759.849Z" transform="translate(-543.453 -752.923)"/></svg>