<svg xmlns="http://www.w3.org/2000/svg" width="27.189" height="24.108" viewBox="0 0 27.189 24.108"><defs><style>.a{fill:#fff;}</style></defs><path class="a" d="M-463.446,701.66a28.551,28.551,0,0,1-.929,2.8,22.762,22.762,0,0,1-4.331,6.11,55.3,55.3,0,0,1-7.511,6.657,1.1,1.1,0,0,1-1.512.09,48.662,48.662,0,0,1-9.989-9.56,14.789,14.789,0,0,1-2.711-5.319,7.41,7.41,0,0,1,8.13-8.933,7.6,7.6,0,0,1,4.942,2.412c.1.1.192.207.286.308.482-.425.917-.87,1.415-1.238,4.555-3.365,11.194-.824,12.117,4.627a1.581,1.581,0,0,0,.093.263ZM-477.12,715.3c.144-.086.2-.113.251-.151a51.151,51.151,0,0,0,7.362-6.8,18.76,18.76,0,0,0,3.462-5.253,5.535,5.535,0,0,0,.213-3.994,5.434,5.434,0,0,0-4.618-3.562,5.461,5.461,0,0,0-5.529,2.949,1.154,1.154,0,0,1-1.059.772,1.156,1.156,0,0,1-1.057-.774,5.5,5.5,0,0,0-5.677-2.938,5.345,5.345,0,0,0-4.714,5.82,9.53,9.53,0,0,0,1.316,3.457,30.8,30.8,0,0,0,5.784,6.774C-480,712.873-478.538,714.073-477.12,715.3Z" transform="translate(490.635 -693.464)"/></svg>