<svg xmlns="http://www.w3.org/2000/svg" width="19.483" height="24.108" viewBox="0 0 19.483 24.108"><defs><style>.a{fill:#fff;}</style></defs><g transform="translate(0 0)"><g transform="translate(0)"><path class="a" d="M742.971,746.714a9.048,9.048,0,0,1-2.174,6.152c-2.271,2.615-4.493,5.272-6.738,7.909-.562.661-1.051.707-1.56.111q-3.589-4.2-7.156-8.418a8.292,8.292,0,0,1-1.855-5.537,9.73,9.73,0,0,1,19.343-1.505C742.908,745.936,742.943,746.453,742.971,746.714Zm-9.752,12.427c.092-.1.155-.169.214-.238,2-2.349,3.976-4.72,6.009-7.04a7.214,7.214,0,0,0,1.7-6.331,7.91,7.91,0,0,0-7.1-6.594,7.8,7.8,0,0,0-8.087,4.605,7.184,7.184,0,0,0,.781,7.951C728.822,754.077,731.025,756.563,733.219,759.141Z" transform="translate(-723.488 -737.196)"/><path class="a" d="M781.655,799.764a4.682,4.682,0,0,1-4.665-4.8,4.707,4.707,0,1,1,4.665,4.8Zm.063-1.681a3.026,3.026,0,1,0-3.041-2.975A2.995,2.995,0,0,0,781.718,798.083Z" transform="translate(-771.956 -785.342)"/></g></g></svg>