<svg xmlns="http://www.w3.org/2000/svg" width="24.227" height="24.108" viewBox="0 0 24.227 24.108"><defs><style>.a{fill:#fff;}</style></defs><path class="a" d="M294.406,884.657a6.989,6.989,0,1,1,8.067,0,12.28,12.28,0,0,1,8.079,11.4h-1.907a10.152,10.152,0,0,0-3.8-7.867,9.836,9.836,0,0,0-6.951-2.273,10.261,10.261,0,0,0-9.67,10.142h-1.9C286.631,890.557,289.342,886.8,294.406,884.657Zm4.005-.636a5.095,5.095,0,1,0-5.069-5.121A5.115,5.115,0,0,0,298.411,884.021Z" transform="translate(-286.325 -871.955)"/></svg>