<svg xmlns="http://www.w3.org/2000/svg" width="24.104" height="24.108" viewBox="0 0 24.104 24.108"><defs><style>.a{fill:#fff;}</style></defs><path class="a" d="M261.87,369.766a10.146,10.146,0,0,1-13.776-14.87,10.1,10.1,0,0,1,13.594-.783,10.212,10.212,0,0,1,1.375,14.478,2.045,2.045,0,0,1,.427.26q2.621,2.605,5.229,5.224a4.275,4.275,0,0,1,.323.342.927.927,0,0,1-1.323,1.3c-.121-.1-.23-.214-.341-.325q-2.6-2.6-5.192-5.195A3.587,3.587,0,0,1,261.87,369.766ZM263.591,362a8.269,8.269,0,1,0-8.251,8.271A8.294,8.294,0,0,0,263.591,362Z" transform="translate(-245.174 -351.855)"/></svg>