<svg xmlns="http://www.w3.org/2000/svg" width="18.121" height="18.151" viewBox="0 0 18.121 18.151"><defs><style>.a{fill:#fff;}</style></defs><g transform="translate(-429.133 -5279.561)"><g transform="translate(-1313.31 4706.981)"><path class="a" d="M1751.329,572.625c.949,0,1.9-.012,2.848,0a12.1,12.1,0,0,1,2.426.206,4.712,4.712,0,0,1,3.08,2.093,5.227,5.227,0,0,1,.763,2.251,28.758,28.758,0,0,1,.117,3.275c0,1.339,0,2.677-.017,4.016a10.654,10.654,0,0,1-.22,2.383,4.658,4.658,0,0,1-3.507,3.621,7.105,7.105,0,0,1-1.829.233c-2.112.017-4.225.03-6.337.022a9.712,9.712,0,0,1-2.37-.226,4.664,4.664,0,0,1-3.606-3.6,7.414,7.414,0,0,1-.208-1.766c-.017-2.021-.03-4.042-.025-6.062a12.026,12.026,0,0,1,.179-2.363,4.689,4.689,0,0,1,2.481-3.416,5.075,5.075,0,0,1,2.133-.582c1.363-.063,2.727-.089,4.091-.13Zm-.034,1.631v-.008c-.324,0-.647,0-.971,0a28.771,28.771,0,0,0-3.17.111,3.632,3.632,0,0,0-1.382.424,3.108,3.108,0,0,0-1.547,2.241,10.487,10.487,0,0,0-.147,1.984q-.011,2.992.023,5.983a7.475,7.475,0,0,0,.156,1.456,3.026,3.026,0,0,0,2.494,2.484,10.466,10.466,0,0,0,2.1.168c1.137.018,2.275.016,3.412.014a32.1,32.1,0,0,0,3.564-.11,3.571,3.571,0,0,0,1.53-.5,3.135,3.135,0,0,0,1.414-2.175,10.991,10.991,0,0,0,.146-2.01c.01-1.833,0-3.665-.009-5.5a10.5,10.5,0,0,0-.136-1.774,3.114,3.114,0,0,0-2.516-2.611,11.332,11.332,0,0,0-2.166-.171C1753.158,574.244,1752.226,574.257,1751.294,574.257Z"/><path class="a" d="M1914.543,751.207a4.655,4.655,0,1,1,4.67-4.547A4.661,4.661,0,0,1,1914.543,751.207Zm.009-1.633a3.022,3.022,0,1,0-3.02-2.979A3.025,3.025,0,0,0,1914.552,749.574Z" transform="translate(-163.06 -164.872)"/><path class="a" d="M2231.392,695.512a1.089,1.089,0,1,1,1.091-1.1A1.088,1.088,0,0,1,2231.392,695.512Z" transform="translate(-475.056 -117.584)"/></g></g></svg>