<svg xmlns="http://www.w3.org/2000/svg" width="80.893" height="27.177" viewBox="0 0 80.893 27.177"><defs><style>.a{opacity:0.7;}.b{fill:#fff;stroke:#fff;stroke-width:0.7px;}</style></defs><g class="a" transform="translate(0.752 0.791)"><path class="b" d="M561.814,167.45l-8.365-4.4-8.365,4.4,1.6-9.315-6.768-6.6,9.353-1.359,4.183-8.475,4.183,8.475,9.353,1.359-6.768,6.6ZM542.2,152.282l5.623,5.481L546.5,165.5l6.95-3.654,6.95,3.654-1.327-7.739,5.623-5.481-7.771-1.129-3.475-7.042-3.475,7.042Z" transform="translate(-514.291 -141.704)"/><path class="b" d="M410.591,182.232l-5.72-3.007-5.72,3.007,1.093-6.369-4.628-4.511,6.4-.929,2.86-5.8,2.86,5.8,6.4.929-4.628,4.511ZM397.9,172.1l3.483,3.4-.822,4.794,4.305-2.264,4.305,2.264-.822-4.794,3.483-3.4-4.814-.7-2.153-4.362-2.153,4.362Z" transform="translate(-395.615 -160.557)"/><path class="b" d="M753.448,182.232l-5.72-3.007-5.72,3.007,1.093-6.369-4.628-4.511,6.4-.929,2.86-5.8,2.86,5.8,6.4.929-4.628,4.511ZM740.761,172.1l3.483,3.4-.822,4.794,4.305-2.264,4.305,2.264-.822-4.794,3.483-3.4-4.813-.7-2.153-4.362-2.153,4.362Z" transform="translate(-677.594 -160.557)"/></g></svg>