<svg xmlns="http://www.w3.org/2000/svg" width="47.122" height="36.073" viewBox="0 0 47.122 36.073"><defs><style>.a{opacity:0.7;}.b{fill:#fff;}</style></defs><g class="a" transform="translate(0)"><g transform="translate(0 0)"><path class="b" d="M-845.987,146.2v-.976q0-10.031,0-20.062c0-1.537-.221-1.76-1.755-1.761q-12.837,0-25.675,0c-1.544,0-1.728.188-1.777,1.75-.017.528.017,1.142-.751,1.105-.7-.034-.639-.608-.643-1.106-.021-2.231.87-3.145,3.078-3.145h25.951c2.041,0,2.987.939,2.992,2.965,0,.667,0,1.334,0,2.093,1.814,0,3.525,0,5.236,0,2.412.005,3.279.865,3.281,3.253q0,4.463,0,8.927c0,.331,0,.662,0,1.131,1.241,0,2.393,0,3.546,0,2.073.008,3.031.968,3.032,3.036q0,4.141,0,8.282c0,2.072-.967,3.074-3.015,3.054a1.027,1.027,0,0,0-1.188.789,3.9,3.9,0,0,1-3.791,2.54,3.926,3.926,0,0,1-3.692-2.56c-.238-.683-.587-.774-1.2-.768-2.515.026-5.031.01-7.546.012-.506,0-1.068.018-1.1-.661-.036-.756.568-.754,1.1-.757,1.254-.006,2.508,0,3.837,0v-5.671h-29.063c0,1.635-.058,3.274.028,4.905.035.659.691.816,1.279.754.535-.057,1.185.326,1.488-.6a3.869,3.869,0,0,1,3.816-2.76,3.894,3.894,0,0,1,3.839,2.732c.2.588.5.651,1,.649,3.129-.011,6.258-.007,9.387,0a2.195,2.195,0,0,1,.9.079.917.917,0,0,1,.493.643c0,.225-.279.509-.508.646a1.549,1.549,0,0,1-.722.048c-3.159,0-6.319.012-9.479-.008-.573,0-.907.074-1.135.723a3.929,3.929,0,0,1-3.754,2.6,3.95,3.95,0,0,1-3.775-2.576c-.222-.622-.509-.8-1.115-.749a2.581,2.581,0,0,1-2.506-.82,3.226,3.226,0,0,1-.677-1.733c-.044-7.669-.028-15.338-.034-23.006,0-.5.057-1,.658-1.006.727,0,.74.592.74,1.134q0,7.868,0,15.736V146.2Zm15.038-2.272c.2-1.764-.169-2.2-1.781-2.2-2.944,0-5.888-.023-8.831.013-.876.01-1.2-.294-1.179-1.178.044-2.238-.008-4.477.023-6.715.018-1.27.125-2.539.192-3.809,1.269-.078,2.538-.163,3.807-.232.415-.022.831,0,1.247,0l.171-.317c-.368-.335-.722-.941-1.1-.96-2.035-.1-4.078-.045-6.1-.045v24.862c.8,0,1.532-.034,2.262.011.58.036.837-.155,1.037-.733a3.9,3.9,0,0,1,3.8-2.653,3.83,3.83,0,0,1,3.788,2.662c.315,1.039,1.007.673,1.6.688a.991.991,0,0,0,1.1-1c.045-1.367.014-2.737.014-4.2-.656,0-1.234.034-1.806-.007a2.156,2.156,0,0,1-2.073-2.066,2.149,2.149,0,0,1,2.124-2.105C-832.107,143.9-831.558,143.924-830.948,143.924Zm-10.335-3.633h3.816v-9.034h-3.816Zm6.533,13.676a2.673,2.673,0,0,0-2.721-2.643,2.743,2.743,0,0,0-2.623,2.681,2.683,2.683,0,0,0,2.707,2.663A2.612,2.612,0,0,0-834.75,153.967Zm-31.088.01a2.687,2.687,0,0,0-2.717-2.653A2.729,2.729,0,0,0-871.182,154a2.669,2.669,0,0,0,2.691,2.672A2.623,2.623,0,0,0-865.838,153.977Zm34.9-7.3v-1.319a9.342,9.342,0,0,0-1.7.03c-.266.051-.472.414-.705.636.24.218.453.573.724.624A9.26,9.26,0,0,0-830.94,146.678Z" transform="translate(876.592 -122.002)"/><path class="b" d="M-812.636,180.3a3.467,3.467,0,0,1,.32.513c.259.551,1.163,1.15.334,1.71-.9.61-1.1-.509-1.506-.986a5.3,5.3,0,0,0-.945-1.043,5.7,5.7,0,0,1-.03,1.413c-.077.295-.445.513-.682.766-.21-.249-.594-.492-.6-.747-.053-1.775-.028-3.553-.028-5.33,0-.537.279-.776.8-.773q1.241.006,2.482,0c.513,0,.818.213.818.758a17.961,17.961,0,0,1-.038,2.568C-811.765,179.52-812.236,179.828-812.636,180.3Zm-1.714-3.088v1.311h1.264v-1.311Z" transform="translate(826.974 -165.919)"/><path class="b" d="M-785.019,178.43a12.456,12.456,0,0,1,1.887.029c.282.045.515.394.77.6-.262.236-.5.621-.79.675a10.843,10.843,0,0,1-1.876.032v1.413a10.815,10.815,0,0,1,1.835.03c.307.054.559.417.836.641-.273.225-.529.61-.824.643-.816.089-1.648.025-2.474.034a.75.75,0,0,1-.864-.831c-.009-1.743-.038-3.488.033-5.229a1.129,1.129,0,0,1,.771-.766,11.284,11.284,0,0,1,2.561-.005c.285.03.529.436.793.67-.254.213-.486.564-.767.609a12.427,12.427,0,0,1-1.891.029Z" transform="translate(803.108 -165.76)"/><path class="b" d="M-755.4,179.863v1.415a11.859,11.859,0,0,1,1.9.031c.293.048.533.423.8.65-.27.221-.522.6-.812.633-.817.087-1.649.023-2.475.033-.593.007-.813-.3-.811-.86.006-1.713.009-3.427,0-5.14,0-.626.287-.883.9-.869.8.017,1.6-.053,2.383.035.292.033.547.406.818.625-.261.229-.5.606-.79.658a11.253,11.253,0,0,1-1.886.031v1.419a11.645,11.645,0,0,1,1.909.032c.285.048.512.439.765.675-.249.211-.476.565-.75.605A13.674,13.674,0,0,1-755.4,179.863Z" transform="translate(778.85 -165.853)"/><path class="b" d="M-843.393,177.113v1.415c.487,0,.936-.024,1.382.006.533.036,1.317-.231,1.3.691-.015.836-.745.622-1.261.648-.449.022-.9,0-1.467,0a14.273,14.273,0,0,1-.029,1.992c-.04.273-.392.5-.6.749-.237-.251-.671-.5-.68-.754-.06-1.771-.031-3.544-.032-5.317a.69.69,0,0,1,.794-.778c.856,0,1.716-.048,2.565.031.261.024.489.4.733.615-.258.232-.488.614-.778.666A11.545,11.545,0,0,1-843.393,177.113Z" transform="translate(850.641 -165.863)"/><path class="b" d="M-690.932,242.462c-.588-.059-1.412.185-1.433-.709-.021-.913.8-.734,1.375-.719s1.472-.272,1.5.681C-689.468,242.689-690.367,242.379-690.932,242.462Z" transform="translate(726.273 -219.102)"/></g></g></svg>