<svg xmlns="http://www.w3.org/2000/svg" width="38.685" height="33.866" viewBox="0 0 38.685 33.866"><defs><style>.a{opacity:0.7;}.b{fill:#fff;}</style></defs><g class="a"><path class="b" d="M-505.854,70.116h-14.515c-1.233,0-1.507-.274-1.507-1.5,0-5.115-.007-10.231.01-15.346a1.146,1.146,0,0,0-.642-1.186,5.228,5.228,0,0,1-2.643-4.09,2.524,2.524,0,0,1,.281-1.428c1.756-3.168,3.569-6.305,5.341-9.465a1.491,1.491,0,0,1,1.454-.85q12.247.021,24.493,0a1.439,1.439,0,0,1,1.4.812q2.682,4.769,5.415,9.51a2.838,2.838,0,0,1,.036,2.4,5.148,5.148,0,0,1-2.52,3.164.968.968,0,0,0-.563,1c.018,5.191.012,10.382.01,15.573,0,1.078-.315,1.4-1.383,1.4Q-498.521,70.119-505.854,70.116Zm-1.5-1.986h15.558V52.911a5.773,5.773,0,0,1-4.855-2.4,5.6,5.6,0,0,1-4.595,2.388,5.71,5.71,0,0,1-4.578-2.354,5.725,5.725,0,0,1-9.258,0,5.721,5.721,0,0,1-4.824,2.383V68.115h3.3v-.889c0-3-.01-6,0-9a3.245,3.245,0,0,1,3.527-3.525c.656,0,1.311,0,1.966,0,2.5,0,3.755,1.261,3.756,3.763C-507.351,61.662-507.352,64.862-507.352,68.13Zm-15.037-22.088h33.059c-.066-.15-.1-.24-.143-.321-1.339-2.365-2.667-4.736-4.041-7.081a1.117,1.117,0,0,0-.835-.417c-7.663-.022-15.326-.013-22.989-.029a.926.926,0,0,0-.936.563c-.772,1.413-1.583,2.8-2.377,4.206C-521.217,43.961-521.78,44.963-522.389,46.042Zm13.119,22.1c0-3.464.015-6.86-.012-10.256a1.213,1.213,0,0,0-1.321-1.258c-.88-.035-1.763-.033-2.643-.008a1.32,1.32,0,0,0-1.46,1.461c-.023,3.248-.008,6.5,0,9.744a1.723,1.723,0,0,0,.065.317ZM-488.5,48.083h-7.026a3.513,3.513,0,0,0,3.467,2.924A3.6,3.6,0,0,0-488.5,48.083Zm-34.67-.033a3.528,3.528,0,0,0,3.94,2.9,3.282,3.282,0,0,0,3.038-2.9Zm16.241.026h-7.033a3.579,3.579,0,0,0,3.57,2.916A3.508,3.508,0,0,0-506.933,48.076Zm2.2-.017A3.506,3.506,0,0,0-501.226,51a3.51,3.51,0,0,0,3.494-2.937Z" transform="translate(525.165 -36.251)"/><path class="b" d="M-390.337,167.361c-.907,0-1.815.023-2.721-.006a2.517,2.517,0,0,1-2.491-2.515c-.03-1.41-.032-2.822,0-4.232a2.522,2.522,0,0,1,2.463-2.471q2.758-.053,5.517,0a2.527,2.527,0,0,1,2.453,2.483q.049,2.115,0,4.232a2.523,2.523,0,0,1-2.505,2.5C-388.522,167.383-389.43,167.361-390.337,167.361Zm.008-1.877c.781,0,1.562-.005,2.343,0,.64.006,1-.271,1-.941,0-1.209,0-2.419,0-3.628a.785.785,0,0,0-.887-.882q-2.456.006-4.913,0a.787.787,0,0,0-.884.886c-.008,1.209,0,2.419,0,3.628a.825.825,0,0,0,.929.932C-391.941,165.484-391.135,165.482-390.329,165.484Z" transform="translate(415.176 -139.676)"/></g></svg>