<svg xmlns="http://www.w3.org/2000/svg" width="31.393" height="34.697" viewBox="0 0 31.393 34.697"><defs><style>.a{fill:#fff;stroke:#fff;stroke-width:0.5px;opacity:0.7;}</style></defs><path class="a" d="M511.658-777.894c-1.017,1.1-1,1.065-2.266.494-.815-.368-1.108-1.127-1.528-1.794-.092-.147.007-.415.02-.661,0,0-.029-.033-.059-.064l-.787-.8c.308-.22.612-.445.926-.657a1.982,1.982,0,0,1,.31-.122c.459-.2.916-.411,1.374-.618a8.6,8.6,0,0,0-.867-1.774,1.009,1.009,0,0,1-.227-1.192c.065-.141.105-.293.156-.441.418-1.215.415-1.2,1.691-.97a.827.827,0,0,0,.615-.234,9.1,9.1,0,0,0,1.39-1.542c.584-.934,1.042-1.947,1.559-2.937a3.518,3.518,0,0,0-.316-.355,3.319,3.319,0,0,1-1.287-2.99,1.343,1.343,0,0,0-.476-.863c-.692-.671-.638-.859.091-1.43a2.253,2.253,0,0,1,2.914-.184,4.97,4.97,0,0,0,3.473.621,2.415,2.415,0,0,1,1.84.8c.14.114.144.542.055.764-.256.641-.616,1.24-.882,1.877a.991.991,0,0,0,0,.726.739.739,0,0,1-.329,1.109c.434.562.6,1.291,1.395,1.545.171.055.317.5.3.753a7.217,7.217,0,0,1-.317,1.3l6.542,2.8c.225-.474.433-.915.643-1.355a.582.582,0,0,1,.98-.25c.363.26.676.594,1.053.828a10.271,10.271,0,0,0,1.193.554l-.049-.3c.382-.378.739-.785,1.151-1.128.578-.48,1.191-.919,1.8-1.36a1.226,1.226,0,0,1,.487-.185c.173-.032.364.021.535-.017a2.315,2.315,0,0,1,2.775,1.448c.5.94.272,1.947-.756,2.207a2.094,2.094,0,0,0-1.634,1.952c-.043.264-.08.529-.125.794-.157.92-.261,1.007-1.2.953-.08.472-.131.96-.257,1.427-.062.229-.242.566-.409.591a1.027,1.027,0,0,1-.71-.317c-.256-.241-.415-.583-.656-.844a1.027,1.027,0,0,0-.532-.3c-.706-.125-.871-.45-.494-1.061.151-.244.314-.48.5-.761-.926,0-1.658-1.244-2.659-.115a3.76,3.76,0,0,0,.076.453c.193.733.4,1.463.6,2.195.358,1.333.229,1.477-1.112,1.254a.976.976,0,0,0-1.1.889,1.183,1.183,0,0,1-.786,1.052,5.361,5.361,0,0,0-.991.556,6.1,6.1,0,0,0-.735.794c-.427.479-.839.972-1.283,1.434a8.292,8.292,0,0,1-.931.818c-.27.207-.584.355-.858.558a2.475,2.475,0,0,0-.779.684,2.759,2.759,0,0,0-.2,1.912,7.978,7.978,0,0,1-.239,2.174,3.2,3.2,0,0,1-.938,1.943c-.333.354-.518.875-.893,1.157a5.756,5.756,0,0,1-1.681.816c-.118.038-.491-.4-.595-.673-1.058-2.794-2.085-5.6-3.12-8.4-.317-.857-.608-1.725-.956-2.57a3.086,3.086,0,0,1-.24-1.94A2.966,2.966,0,0,0,511.658-777.894Zm5.473,13.412a2.281,2.281,0,0,0,.442-.31c.363-.452.733-.9,1.054-1.382a4.609,4.609,0,0,0,.673-3.478,3.225,3.225,0,0,1,.762-2.784c.632-.677,1.661-1,2.336-1.731.411-.447.83-.887,1.243-1.333a7.712,7.712,0,0,1,.832-.889c.331-.258.747-.4,1.1-.637a.985.985,0,0,0,.384-.484,2.49,2.49,0,0,1,2.166-1.789c-.246-.929-.479-1.857-.742-2.775a.655.655,0,0,1,.433-.9,10.287,10.287,0,0,1,1.426-.569,2.325,2.325,0,0,1,1.056.086c.525.134,1.022.405,1.551.492,1.027.168,1.184.47.595,1.351-.1.148-.194.3-.307.474l.458.573c.5-1.3.5-1.3,1.331-1.266.018-.082.04-.167.054-.254.245-1.461.466-2.939,2.356-3.184a.262.262,0,0,0,.174-.09.654.654,0,0,0,.144-.342,1.69,1.69,0,0,0-2.283-1.031c-.583.41-1.162.827-1.762,1.212-.317.2-.553.4-.531.83a.648.648,0,0,1-.691.736c-.893.031-1.8.131-2.467-.691a3.215,3.215,0,0,0-.545-.428c-.136.283-.254.521-.366.761-.446.96-.529.991-1.516.57q-3.047-1.3-6.1-2.591c-1.4-.6-1.322-.529-.926-1.9.042-.146.059-.3.088-.449a11.932,11.932,0,0,1-1.508-1.948c-.3-.474-.9-.982-.014-1.486.03-.017.01-.114.024-.172a6.107,6.107,0,0,1,.243-1c.239-.573.534-1.123.888-1.851a4.8,4.8,0,0,0-1.276-.137,4.687,4.687,0,0,1-3.152-.577c-.255-.137-.537-.222-.79-.362-.405-.225-.745-.2-.964.088.181.417.485.78.459,1.117a3.4,3.4,0,0,0,1.344,3.083c.051.042.118.095.128.152.052.3.225.674.11.892-.952,1.792-1.707,3.723-3.348,5.062a.969.969,0,0,0-.178.2.847.847,0,0,1-1.116.315,4.013,4.013,0,0,0-.5-.126.861.861,0,0,0-.028,1.115,9.78,9.78,0,0,1,.741,1.5,1.262,1.262,0,0,1-.826,1.965c-.212.077-.42.166-.666.264.851.61.854.675.052,1.618l1.175.88c.423-.557.732-1.028,1.11-1.434a.912.912,0,0,1,.713-.308c.184.054.327.41.4.659.142.5.227,1.025.328,1.54a1.587,1.587,0,0,1,.1.708,2.642,2.642,0,0,0,.2,1.88c.267.685.516,1.378.772,2.068Z" transform="translate(-506.654 797.72)"/></svg>