<svg xmlns="http://www.w3.org/2000/svg" width="34.237" height="34.195" viewBox="0 0 34.237 34.195"><defs><style>.a{fill:#fff;opacity:0.7;}</style></defs><path class="a" d="M-286.855-45.445a3.491,3.491,0,0,1,3.693,3.034,10.009,10.009,0,0,1,.073,4.367c-.444,2.245-1.485,3.151-3.824,3.353,0,.8,0,1.619,0,2.434A5,5,0,0,1-292.137-27h-3a3.164,3.164,0,0,1-3.384,2,14.467,14.467,0,0,1-2.251-.134,2.878,2.878,0,0,1-2.191-3.273,2.964,2.964,0,0,1,2.914-2.6c.512-.01,1.025.024,1.535-.007a3.165,3.165,0,0,1,3.375,2c1.137,0,2.273.039,3.4-.01a2.992,2.992,0,0,0,2.8-2.737c.033-.392,0-.789,0-1.254-.954,0-1.86,0-2.766,0-.866-.005-1.227-.352-1.228-1.2q-.006-5.841,0-11.681c0-.818.352-1.185,1.169-1.2.887-.02,1.774,0,2.653,0,.617-4.394-4.814-9.753-10.2-10.047a10.943,10.943,0,0,0-11.649,10.046c.838,0,1.676,0,2.513,0,1.041.007,1.362.327,1.363,1.35q0,5.707,0,11.414c0,1-.323,1.326-1.3,1.329q-1.669,0-3.338,0c-1.048,0-1.332-.282-1.366-1.336,0-.107-.017-.214-.028-.34a8.84,8.84,0,0,1-1.136-.126,3.3,3.3,0,0,1-2.434-2.417,9.462,9.462,0,0,1-.059-5.52c.519-1.815,1.562-2.567,3.634-2.7a13.063,13.063,0,0,1,5.164-11.013,12.706,12.706,0,0,1,8.655-2.7A13.224,13.224,0,0,1-286.855-45.445Zm-2.107,10.4v-10h-1.907v10Zm-20.146,0v-9.989h-1.935v9.989Zm22.236-8.286v6.547a1.207,1.207,0,0,0,1.534-.794,7.011,7.011,0,0,0,0-5.014C-285.6-43.287-286.077-43.472-286.873-43.332Zm-26.24,6.557v-6.543a1.191,1.191,0,0,0-1.608.893,7.173,7.173,0,0,0,.011,4.707C-314.436-36.916-314.045-36.718-313.113-36.775Zm14.085,9.767c.354,0,.709.022,1.061,0a.983.983,0,0,0,.953-.994.969.969,0,0,0-.953-.991c-.684-.031-1.372-.031-2.056,0a.97.97,0,0,0-.953.991.985.985,0,0,0,.954.993C-299.693-26.986-299.359-27.007-299.028-27.007Z" transform="translate(317.12 59.184)"/></svg>